# xmcd
#
# Track frame offsets:
#	150
#	14753
#	25491
#	43645
#	57164
#	70280
#	83237
#	101640
#	127928
#	139807
#	154200
#	171863
#	196315
#	210776
#	230609
#
# Disc length: 3229 seconds
#
# Revision: 1
# Processed by: cddbd v1.5.2PL0 Copyright (c) Steve Scherf et al.
# Submitted via: EZCDAudioConverter 2.1.7.1
#
DISCID=ce0c9b0f
DTITLE=V/A - Heavy Mod
DYEAR=1900
DGENRE=MOJO
TTITLE0=The Move - Walk Upon The Water
TTITLE1=The Yardbirds - Shapes Of Things
TTITLE2=Caravan - Place Of My Own
TTITLE3=Deep Feeling - Pretty Colours
TTITLE4=Deep Purple - Emmaretta
TTITLE5=The Creation - How Does It Feel To Feel
TTITLE6=13th Floor Elevators - Slip Inside This House
TTITLE7=Aphrodite's Child - The Four Horsemen
TTITLE8=Blossom Toes - I'll Be Late For Tea
TTITLE9=Small Faces - Song Of A Baker
TTITLE10=Pretty Things - Baron Saturday
TTITLE11=David Axelrod - Holy Thursday
TTITLE12=Humble Pie - Growing Closer
TTITLE13=The Attack - Mr. Pinnodmy's Dilemma
TTITLE14=Bubble Puppy - Hot Smoke And Sassafras
EXTD=
EXTT0=
EXTT1=
EXTT2=
EXTT3=
EXTT4=
EXTT5=
EXTT6=
EXTT7=
EXTT8=
EXTT9=
EXTT10=
EXTT11=
EXTT12=
EXTT13=
EXTT14=
PLAYORDER=
